<?xml version="1.0" encoding="UTF-8" standalone="no"?>
<!DOCTYPE svg PUBLIC "-//W3C//DTD SVG 1.1//EN"
 "http://www.w3.org/Graphics/SVG/1.1/DTD/svg11.dtd">
<!-- Generated by graphviz version 2.30.1 (20180420.1509)
 -->
<!-- Title: workflow Pages: 1 -->
<svg width="618pt" height="166pt"
 viewBox="0.00 0.00 618.00 166.00" xmlns="http://www.w3.org/2000/svg" xmlns:xlink="http://www.w3.org/1999/xlink">
<g id="graph0" class="graph" transform="scale(1 1) rotate(0) translate(4 162)">
<title>workflow</title>
<polygon fill="white" stroke="white" points="-4,5 -4,-162 615,-162 615,5 -4,5"/>
<!-- place_2b020927d3c6eb407223a1baa3d6ce3597a3f88d -->
<g id="node1" class="node"><title>place_2b020927d3c6eb407223a1baa3d6ce3597a3f88d</title>
<ellipse fill="none" stroke="#333333" cx="36" cy="-74" rx="36" ry="36"/>
<text text-anchor="middle" x="36" y="-71.8" font-family="Arial" font-size="9.00">start</text>
</g>
<!-- place_8ccb14e1c0e6959632002dbe4b4d14d7d4ef935a -->
<g id="node2" class="node"><title>place_8ccb14e1c0e6959632002dbe4b4d14d7d4ef935a</title>
<ellipse fill="lightblue" stroke="#333333" cx="158" cy="-74" rx="36" ry="36"/>
<text text-anchor="middle" x="158" y="-71.8" font-family="Arial" font-size="9.00">inited</text>
</g>
<!-- place_2b020927d3c6eb407223a1baa3d6ce3597a3f88d&#45;&gt;place_8ccb14e1c0e6959632002dbe4b4d14d7d4ef935a -->
<g id="edge1" class="edge"><title>place_2b020927d3c6eb407223a1baa3d6ce3597a3f88d&#45;&gt;place_8ccb14e1c0e6959632002dbe4b4d14d7d4ef935a</title>
<path fill="none" stroke="#333333" d="M72.0316,-74C85.956,-74 102.064,-74 116.487,-74"/>
<polygon fill="#333333" stroke="#333333" points="116.717,-75.7501 121.717,-74 116.717,-72.2501 116.717,-75.7501"/>
<text text-anchor="middle" x="97" y="-76.8" font-family="Arial" font-size="9.00">init</text>
</g>
<!-- place_8fa7310aa95e5333110373353d6a8bc907db88c5 -->
<g id="node3" class="node"><title>place_8fa7310aa95e5333110373353d6a8bc907db88c5</title>
<ellipse fill="none" stroke="#333333" cx="300" cy="-122" rx="36" ry="36"/>
<text text-anchor="middle" x="300" y="-119.8" font-family="Arial" font-size="9.00">fetched</text>
</g>
<!-- place_8ccb14e1c0e6959632002dbe4b4d14d7d4ef935a&#45;&gt;place_8fa7310aa95e5333110373353d6a8bc907db88c5 -->
<g id="edge2" class="edge"><title>place_8ccb14e1c0e6959632002dbe4b4d14d7d4ef935a&#45;&gt;place_8fa7310aa95e5333110373353d6a8bc907db88c5</title>
<path fill="none" stroke="#333333" d="M189.484,-91.8283C196.702,-95.5614 204.489,-99.2073 212,-102 227.009,-107.581 244.074,-111.915 259.091,-115.099"/>
<polygon fill="#333333" stroke="#333333" points="258.848,-116.836 264.099,-116.135 259.557,-113.408 258.848,-116.836"/>
<text text-anchor="middle" x="229" y="-113.8" font-family="Arial" font-size="9.00">fetching</text>
</g>
<!-- place_8ccb14e1c0e6959632002dbe4b4d14d7d4ef935a&#45;&gt;place_8ccb14e1c0e6959632002dbe4b4d14d7d4ef935a -->
<g id="edge3" class="edge"><title>place_8ccb14e1c0e6959632002dbe4b4d14d7d4ef935a&#45;&gt;place_8ccb14e1c0e6959632002dbe4b4d14d7d4ef935a</title>
<path fill="none" stroke="#333333" d="M146.753,-108.276C146.868,-119.279 150.617,-128 158,-128 164.114,-128 167.736,-122.019 168.866,-113.714"/>
<polygon fill="#333333" stroke="#333333" points="170.643,-113.386 169.247,-108.276 167.152,-113.141 170.643,-113.386"/>
<text text-anchor="middle" x="158" y="-130.8" font-family="Arial" font-size="9.00">reinit</text>
</g>
<!-- place_ab514b9a49fba12b7f30c6780f4398fe0100a38d -->
<g id="node4" class="node"><title>place_ab514b9a49fba12b7f30c6780f4398fe0100a38d</title>
<ellipse fill="none" stroke="#333333" cx="436" cy="-76" rx="36" ry="36"/>
<text text-anchor="middle" x="436" y="-73.8" font-family="Arial" font-size="9.00">stored</text>
</g>
<!-- place_8fa7310aa95e5333110373353d6a8bc907db88c5&#45;&gt;place_ab514b9a49fba12b7f30c6780f4398fe0100a38d -->
<g id="edge4" class="edge"><title>place_8fa7310aa95e5333110373353d6a8bc907db88c5&#45;&gt;place_ab514b9a49fba12b7f30c6780f4398fe0100a38d</title>
<path fill="none" stroke="#333333" d="M334.468,-110.511C353.334,-104.034 376.98,-95.9173 396.598,-89.1826"/>
<polygon fill="#333333" stroke="#333333" points="397.333,-90.7807 401.494,-87.502 396.197,-87.4703 397.333,-90.7807"/>
<text text-anchor="middle" x="368" y="-105.8" font-family="Arial" font-size="9.00">storing</text>
</g>
<!-- place_8fa7310aa95e5333110373353d6a8bc907db88c5&#45;&gt;place_8ccb14e1c0e6959632002dbe4b4d14d7d4ef935a -->
<g id="edge5" class="edge"><title>place_8fa7310aa95e5333110373353d6a8bc907db88c5&#45;&gt;place_8ccb14e1c0e6959632002dbe4b4d14d7d4ef935a</title>
<path fill="none" stroke="#333333" d="M269.605,-102.462C262.145,-98.1702 253.978,-94.013 246,-91 231.125,-85.3821 214.085,-81.5298 199.052,-78.933"/>
<polygon fill="#333333" stroke="#333333" points="199.255,-77.1929 194.036,-78.0997 198.682,-80.6456 199.255,-77.1929"/>
<text text-anchor="middle" x="229" y="-93.8" font-family="Arial" font-size="9.00">reinit</text>
</g>
<!-- place_7a92f3d26362d6557d5701de77a63a01df61e57f -->
<g id="node5" class="node"><title>place_7a92f3d26362d6557d5701de77a63a01df61e57f</title>
<ellipse fill="none" stroke="#333333" cx="574" cy="-36" rx="36" ry="36"/>
<text text-anchor="middle" x="574" y="-33.8" font-family="Arial" font-size="9.00">end</text>
</g>
<!-- place_ab514b9a49fba12b7f30c6780f4398fe0100a38d&#45;&gt;place_7a92f3d26362d6557d5701de77a63a01df61e57f -->
<g id="edge6" class="edge"><title>place_ab514b9a49fba12b7f30c6780f4398fe0100a38d&#45;&gt;place_7a92f3d26362d6557d5701de77a63a01df61e57f</title>
<path fill="none" stroke="#333333" d="M470.618,-66.1124C489.907,-60.4392 514.204,-53.2929 534.288,-47.3859"/>
<polygon fill="#333333" stroke="#333333" points="534.994,-49.0023 539.297,-45.9125 534.007,-45.6445 534.994,-49.0023"/>
<text text-anchor="middle" x="505" y="-61.8" font-family="Arial" font-size="9.00">ending</text>
</g>
<!-- place_ab514b9a49fba12b7f30c6780f4398fe0100a38d&#45;&gt;place_8ccb14e1c0e6959632002dbe4b4d14d7d4ef935a -->
<g id="edge7" class="edge"><title>place_ab514b9a49fba12b7f30c6780f4398fe0100a38d&#45;&gt;place_8ccb14e1c0e6959632002dbe4b4d14d7d4ef935a</title>
<path fill="none" stroke="#333333" d="M399.772,-72.0154C380.889,-70.0772 357.206,-67.9619 336,-67 289.003,-64.8682 234.97,-67.7837 199.091,-70.4757"/>
<polygon fill="#333333" stroke="#333333" points="198.784,-68.7439 193.933,-70.8706 199.052,-72.2337 198.784,-68.7439"/>
<text text-anchor="middle" x="300" y="-69.8" font-family="Arial" font-size="9.00">reinit</text>
</g>
<!-- place_7a92f3d26362d6557d5701de77a63a01df61e57f&#45;&gt;place_8ccb14e1c0e6959632002dbe4b4d14d7d4ef935a -->
<g id="edge8" class="edge"><title>place_7a92f3d26362d6557d5701de77a63a01df61e57f&#45;&gt;place_8ccb14e1c0e6959632002dbe4b4d14d7d4ef935a</title>
<path fill="none" stroke="#333333" d="M537.959,-33.8385C518.533,-32.7475 493.939,-31.5427 472,-31 440.01,-30.2086 431.886,-28.3056 400,-31 315.544,-38.1365 295.286,-47.2743 212,-63 207.592,-63.8323 202.985,-64.7367 198.407,-65.6573"/>
<polygon fill="#333333" stroke="#333333" points="198.014,-63.9513 193.461,-66.66 198.709,-67.3816 198.014,-63.9513"/>
<text text-anchor="middle" x="368" y="-37.8" font-family="Arial" font-size="9.00">reinit</text>
</g>
</g>
</svg>
