<?xml version="1.0" encoding="UTF-8" standalone="no"?>
<!DOCTYPE svg PUBLIC "-//W3C//DTD SVG 1.1//EN"
 "http://www.w3.org/Graphics/SVG/1.1/DTD/svg11.dtd">
<!-- Generated by graphviz version 2.30.1 (20180420.1509)
 -->
<!-- Title: workflow Pages: 1 -->
<svg width="618pt" height="80pt"
 viewBox="0.00 0.00 618.00 80.00" xmlns="http://www.w3.org/2000/svg" xmlns:xlink="http://www.w3.org/1999/xlink">
<g id="graph0" class="graph" transform="scale(1 1) rotate(0) translate(4 76)">
<title>workflow</title>
<polygon fill="white" stroke="white" points="-4,5 -4,-76 615,-76 615,5 -4,5"/>
<!-- place_2b020927d3c6eb407223a1baa3d6ce3597a3f88d -->
<g id="node1" class="node"><title>place_2b020927d3c6eb407223a1baa3d6ce3597a3f88d</title>
<ellipse fill="none" stroke="#333333" cx="36" cy="-36" rx="36" ry="36"/>
<text text-anchor="middle" x="36" y="-33.8" font-family="Arial" font-size="9.00">start</text>
</g>
<!-- place_8ccb14e1c0e6959632002dbe4b4d14d7d4ef935a -->
<g id="node2" class="node"><title>place_8ccb14e1c0e6959632002dbe4b4d14d7d4ef935a</title>
<ellipse fill="lightblue" stroke="#333333" cx="158" cy="-36" rx="36" ry="36"/>
<text text-anchor="middle" x="158" y="-33.8" font-family="Arial" font-size="9.00">inited</text>
</g>
<!-- place_2b020927d3c6eb407223a1baa3d6ce3597a3f88d&#45;&gt;place_8ccb14e1c0e6959632002dbe4b4d14d7d4ef935a -->
<g id="edge1" class="edge"><title>place_2b020927d3c6eb407223a1baa3d6ce3597a3f88d&#45;&gt;place_8ccb14e1c0e6959632002dbe4b4d14d7d4ef935a</title>
<path fill="none" stroke="#333333" d="M72.0316,-36C85.956,-36 102.064,-36 116.487,-36"/>
<polygon fill="#333333" stroke="#333333" points="116.717,-37.7501 121.717,-36 116.717,-34.2501 116.717,-37.7501"/>
<text text-anchor="middle" x="97" y="-38.8" font-family="Arial" font-size="9.00">init</text>
</g>
<!-- place_8fa7310aa95e5333110373353d6a8bc907db88c5 -->
<g id="node3" class="node"><title>place_8fa7310aa95e5333110373353d6a8bc907db88c5</title>
<ellipse fill="none" stroke="#333333" cx="300" cy="-36" rx="36" ry="36"/>
<text text-anchor="middle" x="300" y="-33.8" font-family="Arial" font-size="9.00">fetched</text>
</g>
<!-- place_8ccb14e1c0e6959632002dbe4b4d14d7d4ef935a&#45;&gt;place_8fa7310aa95e5333110373353d6a8bc907db88c5 -->
<g id="edge2" class="edge"><title>place_8ccb14e1c0e6959632002dbe4b4d14d7d4ef935a&#45;&gt;place_8fa7310aa95e5333110373353d6a8bc907db88c5</title>
<path fill="none" stroke="#333333" d="M194.328,-36C213.893,-36 238.292,-36 258.611,-36"/>
<polygon fill="#333333" stroke="#333333" points="258.683,-37.7501 263.683,-36 258.683,-34.2501 258.683,-37.7501"/>
<text text-anchor="middle" x="229" y="-38.8" font-family="Arial" font-size="9.00">fetching</text>
</g>
<!-- place_ab514b9a49fba12b7f30c6780f4398fe0100a38d -->
<g id="node4" class="node"><title>place_ab514b9a49fba12b7f30c6780f4398fe0100a38d</title>
<ellipse fill="none" stroke="#333333" cx="436" cy="-36" rx="36" ry="36"/>
<text text-anchor="middle" x="436" y="-33.8" font-family="Arial" font-size="9.00">stored</text>
</g>
<!-- place_8fa7310aa95e5333110373353d6a8bc907db88c5&#45;&gt;place_ab514b9a49fba12b7f30c6780f4398fe0100a38d -->
<g id="edge3" class="edge"><title>place_8fa7310aa95e5333110373353d6a8bc907db88c5&#45;&gt;place_ab514b9a49fba12b7f30c6780f4398fe0100a38d</title>
<path fill="none" stroke="#333333" d="M336.207,-36C354.068,-36 375.854,-36 394.418,-36"/>
<polygon fill="#333333" stroke="#333333" points="394.563,-37.7501 399.563,-36 394.563,-34.2501 394.563,-37.7501"/>
<text text-anchor="middle" x="368" y="-38.8" font-family="Arial" font-size="9.00">storing</text>
</g>
<!-- place_7a92f3d26362d6557d5701de77a63a01df61e57f -->
<g id="node5" class="node"><title>place_7a92f3d26362d6557d5701de77a63a01df61e57f</title>
<ellipse fill="none" stroke="#333333" cx="574" cy="-36" rx="36" ry="36"/>
<text text-anchor="middle" x="574" y="-33.8" font-family="Arial" font-size="9.00">end</text>
</g>
<!-- place_ab514b9a49fba12b7f30c6780f4398fe0100a38d&#45;&gt;place_7a92f3d26362d6557d5701de77a63a01df61e57f -->
<g id="edge4" class="edge"><title>place_ab514b9a49fba12b7f30c6780f4398fe0100a38d&#45;&gt;place_7a92f3d26362d6557d5701de77a63a01df61e57f</title>
<path fill="none" stroke="#333333" d="M472.023,-36C490.44,-36 513.114,-36 532.308,-36"/>
<polygon fill="#333333" stroke="#333333" points="532.623,-37.7501 537.623,-36 532.623,-34.2501 532.623,-37.7501"/>
<text text-anchor="middle" x="505" y="-38.8" font-family="Arial" font-size="9.00">ending</text>
</g>
</g>
</svg>
